<?xml version="1.0" encoding="UTF-8"?>
<svg xmlns="http://www.w3.org/2000/svg" xmlns:xlink="http://www.w3.org/1999/xlink" viewBox="0 0 594.42 88.63">
  <defs>
    <style>
      .cls-1 {
        fill: #fbb81b;
      }

      .cls-2 {
        fill: url(#linear-gradient);
      }
    </style>
    <linearGradient id="linear-gradient" x1="0" y1="44.31" x2="567.2" y2="44.31" gradientUnits="userSpaceOnUse">
      <stop offset="0" stop-color="#d83415"/>
      <stop offset=".2" stop-color="#e05316"/>
      <stop offset=".57" stop-color="#ee8918"/>
      <stop offset=".85" stop-color="#f7ab1a"/>
      <stop offset="1" stop-color="#fbb81b"/>
    </linearGradient>
  </defs>
  <g id="Layer_1" data-name="Layer 1">
    <path class="cls-2" d="m118.21,59.13l34.12-18.34c-2.1-2.1-4.15-3.6-6.16-4.53-2.01-.92-4.65-1.38-7.92-1.38-5.87,0-10.7,1.98-14.49,5.94-3.79,3.96-5.69,9.09-5.69,15.37m3.88,13.22-.08-.12c.57.81,1.2,1.58,1.89,2.3,3.79,3.98,8.69,5.82,14.56,5.82,6.29,0,10.26-2.09,13.82-4.93,3.85-3.08,5.43-7.04,5.43-7.04,5.32-7.92,12.98-5.78,12.98-5.78-.44,6.05-4.29,14.98-10.31,20.41-6.02,5.43-13.12,8.54-21.92,8.54-5.7,0-11.05-1.58-15.91-4.26-4.86-2.68-8.78-6.51-11.76-11.48-2.98-4.97-4.46-10.53-4.46-16.69s1.49-11.73,4.46-16.69c2.98-4.97,6.89-8.79,11.76-11.48,4.86-2.68,10.14-4.02,15.85-4.02,13.62,0,23.6,6.54,29.93,19.62l-43.46,24.24m174.66-43.51v36.72c0,8.16-2.56,14.79-7.69,19.9-5.13,5.1-11.61,7.66-19.46,7.66s-14.33-2.55-19.46-7.66c-5.13-5.1-7.69-11.74-7.69-19.9V24.36s5.21,0,11.64,0v36.72c0,4.78,1.52,8.74,4.56,11.85,3.04,3.12,6.69,4.68,10.96,4.68s7.92-1.56,10.96-4.68c3.04-3.12,4.56-7.07,4.56-11.85v-25.18c0-6.37,5.21-11.53,11.64-11.53Zm132.33,64.27h-11.74v-52.39c0-6.49,5.26-11.74,11.74-11.74h0v64.14Zm12.36,0h0c0-6.2,5.02-11.22,11.22-11.22h21.66c5.09,0,7.63-2.04,7.63-6.13,0-1.57-.74-2.95-2.22-4.14-1.48-1.2-3.42-2.2-5.81-3-2.39-.8-5.02-1.6-7.9-2.38-2.87-.78-5.75-1.7-8.65-2.74-2.89-1.04-5.54-2.26-7.93-3.65-2.39-1.39-4.33-3.24-5.81-5.55-1.48-2.31-2.22-4.96-2.22-7.96,0-5.65,1.89-9.96,5.68-12.92,3.78-2.96,9.2-4.44,16.25-4.44h16.44c6.2,0,11.22,5.02,11.22,11.22h0s-29.69,0-29.69,0c-2.83,0-4.77.42-5.84,1.27-1.07.85-1.64,2.29-1.73,4.34,0,1.48.74,2.77,2.22,3.88,1.48,1.11,3.4,2.05,5.77,2.81,2.37.76,4.99,1.52,7.86,2.28,2.87.76,5.75,1.68,8.65,2.74,2.89,1.07,5.52,2.32,7.9,3.75,2.37,1.44,4.31,3.34,5.81,5.71,1.5,2.37,2.25,5.12,2.25,8.25,0,5.83-1.83,10.27-5.48,13.31-3.65,3.05-8.46,4.57-14.42,4.57h-32.89ZM0,88.55h0V29.63c0-8.17,2.57-15.15,7.71-20.95C12.86,2.9,19.18,0,26.7,0c4.34,0,8.42,1.04,12.25,3.13,3.83,2.09,6.96,5.16,9.38,9.22,2.42-4,5.56-7.06,9.42-9.17s7.95-3.18,12.29-3.18c7.51,0,13.83,2.9,18.95,8.69,5.12,5.79,7.68,12.77,7.68,20.95v58.99l-13.61-.08h0v-55.3c0-5.47-1.21-9.83-3.63-13.1s-5.65-4.89-9.68-4.89c-9.73,0-14.6,6.85-14.6,20.55v52.82l-13.61-.08h0v-52.74c0-13.7-4.84-20.55-14.52-20.55-4.03,0-7.26,1.63-9.68,4.89-2.42,3.26-3.63,7.63-3.63,13.1v55.38s-6.13-.08-13.69-.08ZM321.63,24.32l-.07,31.05c0,5.47.1,10.78,4.12,15.77,2.55,3.16,5.61,6.46,11.62,6.38,9.73-.12,16.31-9.88,16.02-24.55v-28.65h11.07v28.7c0,13.7,6.64,24.7,16.32,24.5,4.03,0,9.7.64,14.2-7.78,1.61-3.02,1.64-8.41,1.64-13.88v-17.96c0-7.56,3.03-13.59,10.59-13.59h0v34.68c0,11.04-1.64,16.06-6.78,21.85-5.14,5.79-12.4,7.78-19.92,7.78-4.34,0-8.42-1.04-12.25-3.13-3.83-2.09-6.96-5.16-9.38-9.22-2.42,4-5.56,7.06-9.42,9.17s-7.95,3.18-12.29,3.18c-7.51,0-13.83-2.9-18.94-8.69-5.12-5.79-7.68-12.77-7.68-20.95V24.32m-87.62,52.76v-25.23c0-4.79-1.52-8.75-4.56-11.88-3.04-3.12-6.69-4.69-10.96-4.69s-7.92,1.56-10.96,4.69c-3.04,3.12-4.56,7.08-4.56,11.88v36.79c-6.43,0-11.64,0-11.64,0v-36.79c0-8.18,2.56-14.82,7.69-19.93,5.13-5.11,11.61-7.67,19.46-7.67s14.33,2.56,19.46,7.67c5.13,5.11,7.69,11.76,7.69,19.93v36.79c-6.43,0-11.64-5.17-11.64-11.56Zm292.01-17.94l34.12-18.34c-2.1-2.1-4.15-3.6-6.16-4.53-2.01-.92-4.65-1.38-7.92-1.38-5.87,0-10.7,1.98-14.49,5.94-3.79,3.96-5.69,9.09-5.69,15.37m3.88,13.22-.08-.12c.57.81,1.2,1.58,1.89,2.3,3.79,3.98,8.69,5.82,14.56,5.82,6.29,0,10.26-2.09,13.82-4.93,3.85-3.08,5.43-7.04,5.43-7.04,5.32-7.92,12.98-5.78,12.98-5.78-.44,6.05-4.29,14.98-10.31,20.41-6.02,5.43-13.12,8.54-21.92,8.54-5.7,0-11.05-1.58-15.91-4.26-4.86-2.68-8.78-6.51-11.76-11.48-2.98-4.97-4.46-10.53-4.46-16.69s1.49-11.73,4.46-16.69c2.98-4.97,6.89-8.79,11.76-11.48,4.86-2.68,10.14-4.02,15.85-4.02,13.62,0,23.6,6.54,29.93,19.62l-43.46,24.24"/>
  </g>
  <g id="Layer_3" data-name="Layer 3">
    <path class="cls-1" d="m594.42,11.81c0,6.7-5.26,11.95-12.1,11.95s-12.17-5.26-12.17-11.95,5.4-11.81,12.17-11.81,12.1,5.26,12.1,11.81Zm-21.24,0c0,5.26,3.89,9.43,9.22,9.43s9-4.18,9-9.36-3.82-9.5-9.07-9.5-9.14,4.25-9.14,9.43Zm7.27,6.19h-2.74V6.19c1.08-.22,2.59-.36,4.54-.36,2.23,0,3.24.36,4.1.86.65.5,1.15,1.44,1.15,2.59,0,1.3-1.01,2.3-2.45,2.74v.14c1.15.43,1.8,1.3,2.16,2.88.36,1.8.58,2.52.86,2.95h-2.95c-.36-.43-.58-1.51-.94-2.88-.22-1.3-.94-1.87-2.45-1.87h-1.3v4.75Zm.07-6.7h1.3c1.51,0,2.74-.5,2.74-1.73,0-1.08-.79-1.8-2.52-1.8-.72,0-1.22.07-1.51.14v3.38Z"/>
  </g>
</svg>