<?xml version="1.0" standalone="no"?>
<!DOCTYPE svg PUBLIC "-//W3C//DTD SVG 20010904//EN"
 "http://www.w3.org/TR/2001/REC-SVG-20010904/DTD/svg10.dtd">
<svg version="1.0" xmlns="http://www.w3.org/2000/svg"
 width="300.000000pt" height="300.000000pt" viewBox="0 0 300.000000 300.000000"
 preserveAspectRatio="xMidYMid meet">
<metadata>
Created by potrace 1.10, written by Peter Selinger 2001-2011
</metadata>
<g transform="translate(0.000000,300.000000) scale(0.100000,-0.100000)"
fill="#000000" stroke="none">
<path d="M745 1803 c-41 -6 -83 -39 -191 -147 -113 -114 -132 -149 -128 -235
4 -74 20 -113 65 -160 68 -72 167 -90 261 -47 57 25 167 125 236 214 49 63 61
118 42 200 -13 58 -68 130 -119 157 -29 14 -121 24 -166 18z m153 -54 c82 -40
125 -140 98 -233 -13 -44 -31 -66 -123 -157 -59 -59 -117 -111 -128 -117 -90
-44 -212 -5 -262 83 -29 52 -31 140 -4 193 25 48 198 217 242 236 50 22 125
20 177 -5z"/>
<path d="M775 1710 c-71 -15 -121 -83 -112 -151 17 -131 181 -176 255 -72 75
107 -16 250 -143 223z m69 -91 c47 -37 23 -109 -36 -109 -63 0 -91 68 -46 110
28 25 48 25 82 -1z"/>
<path d="M1704 1652 c-26 -4 -61 -40 -66 -67 -2 -16 -13 -21 -50 -25 -26 -3
-61 -16 -77 -28 -38 -28 -49 -28 -62 1 -6 12 -33 38 -61 57 -47 32 -57 35
-123 34 -65 0 -76 -3 -106 -28 -87 -73 -112 -167 -68 -252 70 -136 218 -161
332 -56 l27 26 32 -30 c18 -16 38 -34 45 -41 9 -8 50 -12 118 -12 100 1 105 2
123 26 l19 26 39 -26 c35 -24 48 -26 134 -25 81 0 98 3 117 20 l22 20 27 -21
c34 -26 118 -29 145 -5 17 15 21 15 53 0 20 -9 59 -16 96 -16 57 0 65 3 96 34
19 19 34 44 34 56 0 12 7 34 16 49 28 48 0 114 -74 174 -27 20 -121 24 -155 5
-63 -36 -97 -85 -97 -143 0 -19 -4 -35 -9 -35 -5 0 -9 53 -10 118 -2 108 -4
119 -25 140 -29 29 -55 34 -85 15 -17 -11 -26 -12 -34 -4 -6 6 -28 11 -48 11
-42 0 -69 -27 -69 -67 0 -21 -5 -23 -48 -23 -38 0 -57 -6 -90 -31 l-42 -31 0
60 c0 44 -4 63 -17 74 -25 21 -35 25 -59 20z m46 -213 l0 -179 -30 0 c-18 0
-33 6 -36 15 -5 13 -8 13 -27 0 -28 -20 -82 -19 -117 2 -96 56 -71 229 36 249
33 6 88 -15 97 -38 3 -7 6 19 6 59 1 70 1 72 29 75 15 2 30 2 35 0 4 -2 7 -84
7 -183z m310 6 l0 -185 -30 0 c-20 0 -30 5 -30 15 0 19 -5 19 -36 -1 -61 -40
-155 11 -170 93 -22 116 102 207 181 133 l22 -21 -5 70 -5 70 34 4 c19 2 35 5
37 5 1 1 2 -81 2 -183z m120 29 c0 -131 2 -144 19 -154 11 -5 27 -7 35 -4 9 3
16 2 16 -2 0 -5 3 -19 6 -31 6 -21 3 -23 -39 -23 -34 0 -53 6 -74 24 -28 24
-28 24 -31 171 -2 81 -1 152 1 159 3 8 17 11 36 8 l31 -4 0 -144z m-809 92
c45 -30 69 -80 69 -144 0 -90 -72 -162 -163 -162 -114 0 -196 101 -168 208 32
117 160 165 262 98z m1114 -60 c33 -21 51 -53 59 -98 l7 -38 -89 0 c-49 0 -92
3 -95 6 -3 4 -1 16 4 27 10 17 18 19 60 14 30 -4 49 -2 49 4 0 18 -49 59 -70
59 -33 0 -70 -44 -70 -83 0 -70 64 -109 117 -72 30 21 77 10 63 -15 -13 -23
-71 -50 -110 -50 -113 0 -177 128 -108 215 42 54 126 68 183 31z"/>
<path d="M1570 1450 c-26 -26 -27 -90 -2 -113 25 -22 75 -21 95 1 25 28 22 84
-6 110 -29 27 -61 28 -87 2z m65 -40 c10 -16 -5 -50 -21 -50 -17 0 -28 24 -20
45 6 17 32 20 41 5z"/>
<path d="M1881 1444 c-54 -69 14 -154 90 -114 29 16 27 103 -3 124 -33 23 -64
19 -87 -10z m76 -40 c2 -7 -4 -19 -13 -28 -26 -27 -46 -3 -35 42 2 9 45 -4 48
-14z"/>
<path d="M1240 1523 c-56 -20 -83 -89 -56 -141 20 -39 44 -52 93 -52 43 0 78
25 94 67 27 72 -58 153 -131 126z m82 -65 c28 -37 9 -72 -49 -89 -45 -14 -76
61 -41 98 26 28 65 24 90 -9z"/>
</g>
</svg>
