<svg width="162" height="30" viewBox="0 0 162 30" fill="none" xmlns="http://www.w3.org/2000/svg"><g clip-path="url(#clip0_310_22985)"><path d="M22.9716 24.7961L12.4502 14.4016L1.92881 24.7961L0 22.8918L12.4502 10.5995L24.9004 22.8918L22.9716 24.7961Z" fill="#D1193A"></path><path d="M12.5105 30C7.98318 30 4.29968 26.3632 4.29968 21.8933V8.10668C4.29968 3.63676 7.98318 0 12.5105 0C17.0379 0 20.7214 3.63676 20.7214 8.10668V21.8933C20.7214 26.3632 17.0379 30 12.5105 30ZM12.5105 2.68459C9.48336 2.68459 7.01877 5.11792 7.01877 8.10668V21.8933C7.01877 24.8821 9.48336 27.3154 12.5105 27.3154C15.5377 27.3154 18.0023 24.8821 18.0023 21.8933V8.10668C18.0023 5.11792 15.5377 2.68459 12.5105 2.68459Z" fill="#D1193A"></path><path d="M12.4502 24.1283C13.7595 24.1283 14.821 23.0803 14.821 21.7875C14.821 20.4948 13.7595 19.4468 12.4502 19.4468C11.1408 19.4468 10.0793 20.4948 10.0793 21.7875C10.0793 23.0803 11.1408 24.1283 12.4502 24.1283Z" fill="#D1193A"></path><path d="M80.5948 19.5261C79.9385 19.5261 79.4027 20.0551 79.4027 20.7031C79.4027 21.3511 79.9385 21.8801 80.5948 21.8801C81.2512 21.8801 81.7869 21.3511 81.7869 20.7031C81.7869 20.0551 81.2512 19.5261 80.5948 19.5261Z" fill="#D1193A"></path><path d="M36.7144 17.6019L33.1581 8.6687H30.1176L35.2209 20.8486L32.8165 26.2045H35.8236L43.3513 8.6687H40.3309L36.7144 17.6019Z" fill="#D1193A"></path><path d="M50.0151 8.48352C48.0863 8.48352 46.4924 9.13153 45.2802 10.4209C44.1416 11.6442 43.5657 13.2179 43.5657 15.0892C43.5657 16.9605 44.1416 18.5342 45.2802 19.7575C46.4924 21.0403 48.0863 21.6883 50.0084 21.6883C51.9305 21.6883 53.5245 21.0403 54.7434 19.7509C55.8819 18.5276 56.4579 16.9539 56.4579 15.0826C56.4579 13.2113 55.8819 11.6442 54.7434 10.4143C53.5312 9.13153 51.9372 8.48352 50.0151 8.48352ZM53.6986 15.0892C53.6986 16.2662 53.3839 17.2118 52.7275 17.9722C52.0645 18.7524 51.1738 19.1359 50.0151 19.1359C48.8565 19.1359 47.9658 18.759 47.3027 17.9722C46.6531 17.2118 46.3316 16.2728 46.3316 15.0958C46.3316 13.9188 46.6464 12.9733 47.3027 12.2195C47.9658 11.4392 48.8565 11.0557 50.0151 11.0557C51.1738 11.0557 52.0645 11.4326 52.7275 12.2195C53.3772 12.9799 53.6986 13.9188 53.6986 15.0958V15.0892Z" fill="#D1193A"></path><path d="M67.3008 15.9885C67.3008 16.9275 66.9994 17.668 66.39 18.2631C65.7738 18.845 65.0371 19.1294 64.1464 19.1294C63.2556 19.1294 62.5993 18.8583 62.0635 18.3028C61.5211 17.7408 61.2599 16.9936 61.2599 16.015V8.67531H58.4939V16.0613C58.4939 17.7672 59.0431 19.169 60.1213 20.2138C60.6035 20.7031 61.1661 21.08 61.809 21.3246C62.4386 21.5693 63.1954 21.6883 64.0526 21.6883C64.9099 21.6883 65.7537 21.4635 66.4502 21.0205C66.7516 20.8287 67.0396 20.6171 67.3008 20.3857V21.5032H70.0668V8.6687H67.3008V15.9885Z" fill="#D1193A"></path><path d="M80.2666 11.2078V8.47693H79.6639C78.8401 8.47693 78.1235 8.6224 77.5342 8.90012C76.7908 9.23734 76.1813 9.68037 75.7125 10.2226V8.66207H72.9465V21.4899H75.7125V15.7901C75.7125 14.5272 76.0608 13.4692 76.764 12.5633C77.494 11.6442 78.4115 11.2012 79.5634 11.2012H80.2599L80.2666 11.2078Z" fill="#D1193A"></path><path d="M90.4129 8.92003C89.6695 9.25726 89.0601 9.70028 88.5913 10.2425V8.68199H85.8253V21.5099H88.5913V15.81C88.5913 14.5471 88.9396 13.4891 89.6428 12.5832C90.3728 11.6641 91.2903 11.2211 92.4422 11.2211H93.1387V8.49023H92.536C91.7122 8.49023 90.9956 8.6357 90.4063 8.91342L90.4129 8.92003Z" fill="#D1193A"></path><path d="M100.245 8.49683C98.3158 8.49683 96.7219 9.14483 95.5097 10.4342C94.3711 11.6575 93.7952 13.2312 93.7952 15.1025C93.7952 16.9738 94.3979 18.5343 95.5833 19.7774C96.8089 21.0602 98.4163 21.7082 100.358 21.7082C101.885 21.7082 103.158 21.3379 104.149 20.6172C105.127 19.903 105.85 18.9509 106.299 17.7937L106.547 17.1523H103.587L103.453 17.4036C102.83 18.574 101.825 19.1492 100.385 19.1492C99.3137 19.1492 98.4632 18.8319 97.78 18.1905C97.2309 17.6681 96.8692 17.0465 96.6951 16.2993H106.687V15.1157C106.687 13.2445 106.111 11.6707 104.973 10.4475C103.761 9.16467 102.167 8.51666 100.245 8.51666V8.49683ZM96.742 13.6743C96.9362 12.98 97.2777 12.4179 97.7733 11.9551C98.4431 11.3533 99.2467 11.0558 100.245 11.0558C101.243 11.0558 102.046 11.3467 102.709 11.9484C103.212 12.4113 103.553 12.98 103.747 13.6676H96.742V13.6743Z" fill="#D1193A"></path><path d="M116.927 8.86709C116.298 8.62244 115.541 8.50342 114.684 8.50342C113.827 8.50342 112.983 8.72824 112.286 9.17126C111.985 9.36302 111.697 9.57461 111.436 9.80604V8.68856H108.67V21.5164H111.436V14.1966C111.436 13.2577 111.737 12.5171 112.346 11.922C112.963 11.3401 113.699 11.0558 114.59 11.0558C115.481 11.0558 116.137 11.3269 116.673 11.8823C117.215 12.4443 117.477 13.1982 117.477 14.1702V21.5098H120.243V14.1239C120.243 12.4179 119.693 11.0161 118.615 9.97135C118.133 9.48204 117.57 9.10514 116.927 8.86048V8.86709Z" fill="#D1193A"></path><path d="M126.786 3.94092H124.026V8.19263H121.569V10.7119H124.026V21.5164H126.786V10.7119H129.558V8.19263H126.786V3.94092Z" fill="#D1193A"></path><path d="M140.435 9.81929C139.457 8.93985 138.211 8.49683 136.724 8.49683C134.782 8.49683 133.195 9.15144 132.01 10.4408C130.878 11.6972 130.302 13.2643 130.302 15.1025C130.302 16.9407 130.878 18.5078 132.016 19.7708C133.195 21.0536 134.742 21.7082 136.604 21.7082C138.164 21.7082 139.444 21.2718 140.435 20.399V21.5164H143.201V8.68858H140.435V9.81929ZM140.528 15.1025C140.528 16.2795 140.214 17.2251 139.557 17.9855C138.894 18.7657 138.004 19.1492 136.845 19.1492C135.686 19.1492 134.789 18.7657 134.072 17.9789C133.389 17.2184 133.061 16.2795 133.061 15.1091C133.061 13.9387 133.389 12.9998 134.072 12.2394C134.782 11.4525 135.693 11.069 136.845 11.069C137.997 11.069 138.894 11.4459 139.557 12.2328C140.207 12.9932 140.528 13.9321 140.528 15.1091V15.1025Z" fill="#D1193A"></path><path d="M148.699 3.93433H145.933V21.5164H148.699V3.93433Z" fill="#D1193A"></path><path d="M161.283 15.5918C160.841 15.1158 160.285 14.7322 159.636 14.4611C159.013 14.2033 158.33 14.0049 157.607 13.8594C156.93 13.7272 156.287 13.5817 155.705 13.4296C155.155 13.2842 154.707 13.099 154.352 12.8808C154.097 12.7221 153.983 12.5105 153.983 12.1997C153.983 11.8625 153.983 10.9632 156.287 10.9632C158.397 10.9632 158.752 11.7832 158.832 12.4047L158.886 12.8147H161.672L161.612 12.2857C161.484 11.2013 161.015 10.3152 160.212 9.64739C159.274 8.88036 158.002 8.49023 156.414 8.49023C154.827 8.49023 153.474 8.82085 152.597 9.47547C151.68 10.1631 151.217 11.1285 151.217 12.3584C151.217 13.2114 151.458 13.8925 151.941 14.395C152.376 14.8513 152.932 15.2216 153.588 15.486C154.211 15.7373 154.894 15.9291 155.611 16.0679C156.294 16.2002 156.937 16.3456 157.506 16.511C158.049 16.663 158.504 16.8548 158.852 17.0928C159.113 17.2648 159.227 17.4962 159.227 17.8268C159.227 18.3624 158.966 18.6996 158.383 18.9311C158.082 19.0435 157.767 19.1228 157.453 19.1625C156.816 19.2484 156.026 19.2881 155.289 19.0633C154.325 18.7393 153.829 18.164 153.736 17.2515L153.689 16.8283H150.869L150.896 17.3309C150.97 18.5872 151.499 19.6187 152.463 20.399C153.494 21.2652 154.887 21.7016 156.602 21.7016C158.203 21.7016 159.502 21.3644 160.46 20.7032C161.478 20.0022 161.987 18.9773 161.987 17.6681C161.987 16.8085 161.745 16.1076 161.27 15.5918H161.283Z" fill="#D1193A"></path></g><defs><clipPath id="clip0_310_22985"><rect width="162" height="30" fill="white"></rect></clipPath></defs></svg>